<svg viewBox="0 0 448 512" xmlns="http://www.w3.org/2000/svg"><path d="M368 192c-32.79 0-60.89 19.77-73.25 48H224c-53.57 0-98.37-37.87-109.3-88.2C141.4 138.9 160 111.7 160 80c0-44.18-35.8-80-80-80C35.82 0 0 35.82 0 80c0 32.79 19.77 60.89 48 73.25v205.5C19.77 371.1 0 399.2 0 432c0 44.2 35.82 80 80 80 44.2 0 80-35.8 80-80 0-32.79-19.77-60.89-48-73.25V263.7c30.5 25.1 69.5 40.3 112 40.3h70.75c12.35 28.2 40.45 48 73.25 48 44.18 0 80-35.82 80-80s-35.8-80-80-80zM80 56c13.23 0 24 10.77 24 24s-10.77 24-24 24-24-10.77-24-24 10.77-24 24-24zm0 400c-13.23 0-24-10.77-24-24s10.77-24 24-24 24 10.77 24 24-10.77 24-24 24zm288-160c-13.23 0-24-10.77-24-24s10.77-24 24-24 24 10.77 24 24-10.8 24-24 24z" fill="#ffffff" class="fill-000000"></path></svg>